<svg aria-hidden="true" style="position: absolute; width: 0; height: 0; overflow: hidden;" version="1.1" xmlns="http://www.w3.org/2000/svg" xmlns:xlink="http://www.w3.org/1999/xlink">
<defs>
  <symbol viewBox="0 0 21 24" id="apple-podcast">
    <path d="M12.5357 22.9014C12.2947 23.7925 11.384 24 10.5 24C9.61608 24 8.70534 23.7925 8.46431 22.9014C8.10595 21.5688 7.5 18.2296 7.5 16.6758C7.5 15.0278 8.95978 14.625 10.5 14.625C12.0402 14.625 13.5 15.0278 13.5 16.6758C13.5 18.2203 12.8967 21.5592 12.5357 22.9014ZM7.35314 13.526C6.47691 12.6678 5.94886 11.4554 6.00389 10.1229C6.10017 7.79208 7.99116 5.9062 10.3222 5.81597C12.8842 5.71678 15 7.7722 15 10.3125C15 11.57 14.4814 12.7086 13.6469 13.5259C13.5215 13.6487 13.5344 13.8533 13.6763 13.9565C14.1128 14.2736 14.4479 14.6757 14.6717 15.1454C14.7533 15.3167 14.9762 15.3638 15.1146 15.234C16.4658 13.9664 17.2968 12.1505 17.2479 10.1451C17.161 6.57291 14.2669 3.66656 10.6951 3.56527C6.88448 3.45717 3.75 6.5257 3.75 10.3125C3.75 12.2513 4.57181 14.0016 5.88516 15.2339C6.02358 15.3638 6.24661 15.3168 6.32827 15.1454C6.55205 14.6757 6.88716 14.2736 7.32366 13.9565C7.46564 13.8534 7.47853 13.6487 7.35314 13.526ZM10.5 0C4.69706 0 0 4.69617 0 10.5C0 14.7184 2.46572 18.2647 5.89402 19.941C6.09713 20.0403 6.32841 19.8686 6.29409 19.6452C6.18244 18.9181 6.09056 18.1946 6.04069 17.5668C6.03384 17.4808 5.98683 17.4034 5.91516 17.3553C3.69328 15.8644 2.23247 13.3233 2.25014 10.4484C2.27789 5.93733 5.96686 2.26181 10.4781 2.25005C15.0372 2.23814 18.75 5.94361 18.75 10.5C18.75 13.4031 17.2426 15.9605 14.9695 17.4313C14.9227 18.0893 14.8257 18.8651 14.7059 19.6452C14.6716 19.8686 14.9029 20.0403 15.106 19.941C18.5263 18.2685 21 14.7275 21 10.5C21 4.69711 16.3038 0 10.5 0ZM10.5 7.5C8.84316 7.5 7.5 8.84316 7.5 10.5C7.5 12.1568 8.84316 13.5 10.5 13.5C12.1568 13.5 13.5 12.1568 13.5 10.5C13.5 8.84316 12.1568 7.5 10.5 7.5Z"></path>
  </symbol>
  <symbol fill="none" viewBox="0 0 22 22" id="cart">
    <path d="M3.66666 5.87951L0.693909 2.90768L1.99099 1.6106L4.96283 4.58335H18.9347C19.0775 4.58334 19.2184 4.61672 19.3461 4.68085C19.4738 4.74497 19.5847 4.83805 19.67 4.95267C19.7554 5.06728 19.8127 5.20025 19.8375 5.34096C19.8623 5.48167 19.8538 5.62623 19.8128 5.7631L17.6128 13.0964C17.5562 13.2853 17.4402 13.451 17.282 13.5687C17.1238 13.6864 16.9319 13.75 16.7347 13.75H5.49999V15.5833H15.5833V17.4167H4.58333C4.34021 17.4167 4.10705 17.3201 3.93514 17.1482C3.76324 16.9763 3.66666 16.7431 3.66666 16.5V5.87951ZM5.49999 6.41668V11.9167H16.0527L17.7027 6.41668H5.49999ZM5.04166 21.0833C4.67699 21.0833 4.32725 20.9385 4.06939 20.6806C3.81152 20.4228 3.66666 20.073 3.66666 19.7083C3.66666 19.3437 3.81152 18.9939 4.06939 18.7361C4.32725 18.4782 4.67699 18.3333 5.04166 18.3333C5.40633 18.3333 5.75607 18.4782 6.01393 18.7361C6.27179 18.9939 6.41666 19.3437 6.41666 19.7083C6.41666 20.073 6.27179 20.4228 6.01393 20.6806C5.75607 20.9385 5.40633 21.0833 5.04166 21.0833ZM16.0417 21.0833C15.677 21.0833 15.3273 20.9385 15.0694 20.6806C14.8115 20.4228 14.6667 20.073 14.6667 19.7083C14.6667 19.3437 14.8115 18.9939 15.0694 18.7361C15.3273 18.4782 15.677 18.3333 16.0417 18.3333C16.4063 18.3333 16.7561 18.4782 17.0139 18.7361C17.2718 18.9939 17.4167 19.3437 17.4167 19.7083C17.4167 20.073 17.2718 20.4228 17.0139 20.6806C16.7561 20.9385 16.4063 21.0833 16.0417 21.0833Z" fill="#373F41"></path>
  </symbol>
  <symbol viewBox="0 0 24 24" id="facebook">
    <path d="M24 12C24 5.37258 18.6274 0 12 0C5.37258 0 0 5.37258 0 12C0 17.9895 4.3882 22.954 10.125 23.8542V15.4688H7.07812V12H10.125V9.35625C10.125 6.34875 11.9166 4.6875 14.6576 4.6875C15.9701 4.6875 17.3438 4.92188 17.3438 4.92188V7.875H15.8306C14.34 7.875 13.875 8.80008 13.875 9.75V12H17.2031L16.6711 15.4688H13.875V23.8542C19.6118 22.954 24 17.9895 24 12Z"></path>
  </symbol>
  <symbol viewBox="0 0 24 24" id="google-podcast">
    <path d="M18.816 6.264V7.944C18.816 8.76 18.156 9.432 17.316 9.432C16.488 9.432 15.816 8.76 15.816 7.944V6.264C15.816 5.86618 15.974 5.48464 16.2553 5.20334C16.5366 4.92204 16.9182 4.764 17.316 4.764C18.156 4.764 18.816 5.436 18.816 6.264ZM13.5 7.632V16.356C13.5 17.184 12.828 17.856 12 17.856C11.172 17.856 10.5 17.184 10.5 16.356V7.632C10.5 6.816 11.172 6.132 12 6.132C12.828 6.132 13.5 6.816 13.5 7.632ZM24 11.16V12.84C24 13.656 23.328 14.328 22.5 14.328C21.672 14.328 21 13.656 21 12.84V11.16C21 10.332 21.672 9.672 22.5 9.672C23.328 9.672 24 10.332 24 11.16ZM3 11.16V12.84C3 13.656 2.328 14.328 1.5 14.328C0.66 14.328 0 13.656 0 12.84V11.16C0 10.332 0.66 9.672 1.5 9.672C2.328 9.672 3 10.332 3 11.16ZM8.184 16.056V17.724C8.184 18.54 7.512 19.2 6.684 19.2C5.856 19.2 5.184 18.54 5.184 17.724V16.056C5.184 15.216 5.856 14.556 6.684 14.556C7.08183 14.556 7.46336 14.714 7.74466 14.9953C8.02596 15.2766 8.184 15.6582 8.184 16.056ZM13.5 20.832V22.5C13.5 22.8978 13.342 23.2794 13.0607 23.5607C12.7794 23.842 12.3978 24 12 24C11.6022 24 11.2206 23.842 10.9393 23.5607C10.658 23.2794 10.5 22.8978 10.5 22.5V20.832C10.5 20.4342 10.658 20.0526 10.9393 19.7713C11.2206 19.49 11.6022 19.332 12 19.332C12.3978 19.332 12.7794 19.49 13.0607 19.7713C13.342 20.0526 13.5 20.4342 13.5 20.832ZM13.5 1.5V3.168C13.5 3.56582 13.342 3.94736 13.0607 4.22866C12.7794 4.50996 12.3978 4.668 12 4.668C11.6022 4.668 11.2206 4.50996 10.9393 4.22866C10.658 3.94736 10.5 3.56582 10.5 3.168V1.5C10.5 0.66 11.172 0 12 0C12.3978 0 12.7794 0.158035 13.0607 0.43934C13.342 0.720644 13.5 1.10218 13.5 1.5ZM18.816 12.408V17.724C18.816 18.552 18.156 19.2 17.316 19.2C16.488 19.2 15.816 18.552 15.816 17.724V12.408C15.816 11.568 16.488 10.908 17.316 10.908C18.156 10.908 18.816 11.568 18.816 12.408ZM8.184 6.264V11.58C8.184 12.42 7.512 13.08 6.684 13.08C6.28618 13.08 5.90464 12.922 5.62334 12.6407C5.34204 12.3594 5.184 11.9778 5.184 11.58V6.264C5.184 5.86618 5.34204 5.48464 5.62334 5.20334C5.90464 4.92204 6.28618 4.764 6.684 4.764C7.08183 4.764 7.46336 4.92204 7.74466 5.20334C8.02596 5.48464 8.184 5.86618 8.184 6.264Z"></path>
  </symbol>
  <symbol viewBox="0 0 24 24" id="instagram">
    <path d="M12 2.16094C15.2063 2.16094 15.5859 2.175 16.8469 2.23125C18.0188 2.28281 18.6516 2.47969 19.0734 2.64375C19.6313 2.85938 20.0344 3.12188 20.4516 3.53906C20.8734 3.96094 21.1313 4.35938 21.3469 4.91719C21.5109 5.33906 21.7078 5.97656 21.7594 7.14375C21.8156 8.40937 21.8297 8.78906 21.8297 11.9906C21.8297 15.1969 21.8156 15.5766 21.7594 16.8375C21.7078 18.0094 21.5109 18.6422 21.3469 19.0641C21.1313 19.6219 20.8687 20.025 20.4516 20.4422C20.0297 20.8641 19.6313 21.1219 19.0734 21.3375C18.6516 21.5016 18.0141 21.6984 16.8469 21.75C15.5813 21.8062 15.2016 21.8203 12 21.8203C8.79375 21.8203 8.41406 21.8062 7.15313 21.75C5.98125 21.6984 5.34844 21.5016 4.92656 21.3375C4.36875 21.1219 3.96563 20.8594 3.54844 20.4422C3.12656 20.0203 2.86875 19.6219 2.65313 19.0641C2.48906 18.6422 2.29219 18.0047 2.24063 16.8375C2.18438 15.5719 2.17031 15.1922 2.17031 11.9906C2.17031 8.78438 2.18438 8.40469 2.24063 7.14375C2.29219 5.97187 2.48906 5.33906 2.65313 4.91719C2.86875 4.35938 3.13125 3.95625 3.54844 3.53906C3.97031 3.11719 4.36875 2.85938 4.92656 2.64375C5.34844 2.47969 5.98594 2.28281 7.15313 2.23125C8.41406 2.175 8.79375 2.16094 12 2.16094ZM12 0C8.74219 0 8.33438 0.0140625 7.05469 0.0703125C5.77969 0.126563 4.90313 0.332812 4.14375 0.628125C3.35156 0.9375 2.68125 1.34531 2.01563 2.01562C1.34531 2.68125 0.9375 3.35156 0.628125 4.13906C0.332812 4.90313 0.126563 5.775 0.0703125 7.05C0.0140625 8.33437 0 8.74219 0 12C0 15.2578 0.0140625 15.6656 0.0703125 16.9453C0.126563 18.2203 0.332812 19.0969 0.628125 19.8563C0.9375 20.6484 1.34531 21.3188 2.01563 21.9844C2.68125 22.65 3.35156 23.0625 4.13906 23.3672C4.90313 23.6625 5.775 23.8687 7.05 23.925C8.32969 23.9812 8.7375 23.9953 11.9953 23.9953C15.2531 23.9953 15.6609 23.9812 16.9406 23.925C18.2156 23.8687 19.0922 23.6625 19.8516 23.3672C20.6391 23.0625 21.3094 22.65 21.975 21.9844C22.6406 21.3188 23.0531 20.6484 23.3578 19.8609C23.6531 19.0969 23.8594 18.225 23.9156 16.95C23.9719 15.6703 23.9859 15.2625 23.9859 12.0047C23.9859 8.74688 23.9719 8.33906 23.9156 7.05938C23.8594 5.78438 23.6531 4.90781 23.3578 4.14844C23.0625 3.35156 22.6547 2.68125 21.9844 2.01562C21.3188 1.35 20.6484 0.9375 19.8609 0.632812C19.0969 0.3375 18.225 0.13125 16.95 0.075C15.6656 0.0140625 15.2578 0 12 0Z"></path>
    <path d="M12 5.83594C8.59688 5.83594 5.83594 8.59688 5.83594 12C5.83594 15.4031 8.59688 18.1641 12 18.1641C15.4031 18.1641 18.1641 15.4031 18.1641 12C18.1641 8.59688 15.4031 5.83594 12 5.83594ZM12 15.9984C9.79219 15.9984 8.00156 14.2078 8.00156 12C8.00156 9.79219 9.79219 8.00156 12 8.00156C14.2078 8.00156 15.9984 9.79219 15.9984 12C15.9984 14.2078 14.2078 15.9984 12 15.9984Z"></path>
    <path d="M19.8469 5.59214C19.8469 6.38902 19.2 7.0312 18.4078 7.0312C17.6109 7.0312 16.9688 6.38433 16.9688 5.59214C16.9688 4.79526 17.6156 4.15308 18.4078 4.15308C19.2 4.15308 19.8469 4.79995 19.8469 5.59214Z"></path>
  </symbol>
  <symbol fill="none" viewBox="0 0 22 22" id="login">
    <path d="M18.3332 20.1666H16.4998V18.3333C16.4998 17.6039 16.2101 16.9045 15.6944 16.3888C15.1787 15.873 14.4792 15.5833 13.7498 15.5833H8.24984C7.52049 15.5833 6.82102 15.873 6.30529 16.3888C5.78957 16.9045 5.49984 17.6039 5.49984 18.3333V20.1666H3.6665V18.3333C3.6665 17.1177 4.14939 15.9519 5.00893 15.0924C5.86847 14.2328 7.03426 13.75 8.24984 13.75H13.7498C14.9654 13.75 16.1312 14.2328 16.9907 15.0924C17.8503 15.9519 18.3332 17.1177 18.3332 18.3333V20.1666ZM10.9998 11.9166C10.2776 11.9166 9.56237 11.7744 8.89508 11.498C8.22779 11.2216 7.62147 10.8164 7.11075 10.3057C6.60003 9.79499 6.1949 9.18868 5.9185 8.52139C5.6421 7.85409 5.49984 7.1389 5.49984 6.41663C5.49984 5.69436 5.6421 4.97916 5.9185 4.31187C6.1949 3.64458 6.60003 3.03826 7.11075 2.52754C7.62147 2.01682 8.22779 1.61169 8.89508 1.33529C9.56237 1.05889 10.2776 0.916626 10.9998 0.916626C12.4585 0.916626 13.8575 1.49609 14.8889 2.52754C15.9204 3.55899 16.4998 4.95794 16.4998 6.41663C16.4998 7.87532 15.9204 9.27426 14.8889 10.3057C13.8575 11.3372 12.4585 11.9166 10.9998 11.9166ZM10.9998 10.0833C11.9723 10.0833 12.9049 9.69699 13.5926 9.00935C14.2802 8.32172 14.6665 7.38909 14.6665 6.41663C14.6665 5.44417 14.2802 4.51153 13.5926 3.8239C12.9049 3.13627 11.9723 2.74996 10.9998 2.74996C10.0274 2.74996 9.09475 3.13627 8.40711 3.8239C7.71948 4.51153 7.33317 5.44417 7.33317 6.41663C7.33317 7.38909 7.71948 8.32172 8.40711 9.00935C9.09475 9.69699 10.0274 10.0833 10.9998 10.0833Z" fill="#373F41"></path>
  </symbol>
  <symbol fill="none" viewBox="0 0 145 35" id="logo">
    <path d="M0 25.7782C0 33.2107 3.75795 34.9998 13.1249 34.9998H25.6075C39.3029 34.9998 42.3548 33.4872 42.3548 24.2616C42.3548 14.2837 38.6407 13.2957 22.6435 13.3363C11.597 13.3933 10.3483 13.2957 10.3483 10.3113C10.3483 8.46939 11.9201 7.6562 14.2419 7.6562H25.6514C30.3908 7.6562 30.674 8.70522 30.674 11.2058H40.9705V10.1242C40.9705 4.91168 40.1287 1.11814 32.1381 0.21143C30.9333 0.0691213 29.553 0 27.9852 0H13.5996C11.7805 0 10.2007 0.097583 8.84037 0.272419C0.458773 1.37023 0.047872 5.64761 0.047872 10.974C0.047872 19.3946 1.80717 21.2812 17.3137 21.2812C30.5783 21.2812 31.7751 21.4845 31.7751 24.4567C31.7751 27.0996 29.557 27.3354 27.3708 27.3354H14.7565C11.7765 27.3354 10.3523 27.0589 10.2965 23.424H0V25.7782Z" fill="#ED0024"/>
    <path d="M49.1011 22.4165C49.1011 30.9266 53.4216 35.0007 62.8923 35.0007H77.6408C87.0995 35.0007 91.416 30.9266 91.416 22.4165V0.379028H81.1155V20.1558C81.1155 24.5064 79.5876 26.2019 75.3589 26.2019H65.1622C60.9375 26.2019 59.4056 24.5105 59.4056 20.1558V0.379028H49.1011V22.4165Z" fill="#ED0024"/>
    <path d="M98.7602 34.6307H109.069V9.75106H109.152L128.505 34.6307H144.462V0.379028H134.162V25.2668H134.078L114.726 0.379028H98.7602V34.6307Z" fill="#ED0024"/>
  </symbol>
  <symbol viewBox="0 0 24 24" id="linkedin">
    <path d="M22.2234 0H1.77187C0.792187 0 0 0.773438 0 1.72969V22.2656C0 23.2219 0.792187 24 1.77187 24H22.2234C23.2031 24 24 23.2219 24 22.2703V1.72969C24 0.773438 23.2031 0 22.2234 0ZM7.12031 20.4516H3.55781V8.99531H7.12031V20.4516ZM5.33906 7.43438C4.19531 7.43438 3.27188 6.51094 3.27188 5.37187C3.27188 4.23281 4.19531 3.30937 5.33906 3.30937C6.47813 3.30937 7.40156 4.23281 7.40156 5.37187C7.40156 6.50625 6.47813 7.43438 5.33906 7.43438ZM20.4516 20.4516H16.8937V14.8828C16.8937 13.5562 16.8703 11.8453 15.0422 11.8453C13.1906 11.8453 12.9094 13.2937 12.9094 14.7891V20.4516H9.35625V8.99531H12.7687V10.5609H12.8156C13.2891 9.66094 14.4516 8.70938 16.1813 8.70938C19.7859 8.70938 20.4516 11.0813 20.4516 14.1656V20.4516Z"></path>
  </symbol>
  <symbol fill="none" viewBox="0 0 56 56" id="right">
    <circle cx="28" cy="28" r="28" transform="rotate(-180 28 28)" fill="white" fill-opacity="0.75"></circle>
    <path d="M35 28L21 28" stroke="#373F41" stroke-width="2" stroke-linecap="round" stroke-linejoin="round"></path>
    <path d="M35 28L29 22" stroke="#373F41" stroke-width="2" stroke-linecap="round" stroke-linejoin="round"></path>
    <path d="M35 28L29 34" stroke="#373F41" stroke-width="2" stroke-linecap="round" stroke-linejoin="round"></path>
  </symbol>
  <symbol fill="none" viewBox="0 0 56 56" id="left">
    <circle cx="28" cy="28" r="28" fill="white" fill-opacity="0.75"></circle>
    <path d="M21 28H35" stroke="#373F41" stroke-width="2" stroke-linecap="round" stroke-linejoin="round"></path>
    <path d="M21 28L27 34" stroke="#373F41" stroke-width="2" stroke-linecap="round" stroke-linejoin="round"></path>
    <path d="M21 28L27 22" stroke="#373F41" stroke-width="2" stroke-linecap="round" stroke-linejoin="round"></path>
  </symbol>
  <symbol fill="none" viewBox="0 0 18 18" id="search">
    <path d="M13.5234 12.4627L16.7356 15.6742L15.6744 16.7355L12.4629 13.5232C11.2679 14.4812 9.78162 15.0022 8.25012 15C4.52412 15 1.50012 11.976 1.50012 8.25C1.50012 4.524 4.52412 1.5 8.25012 1.5C11.9761 1.5 15.0001 4.524 15.0001 8.25C15.0023 9.7815 14.4813 11.2678 13.5234 12.4627ZM12.0189 11.9062C12.9707 10.9274 13.5023 9.61532 13.5001 8.25C13.5001 5.349 11.1504 3 8.25012 3C5.34912 3 3.00012 5.349 3.00012 8.25C3.00012 11.1502 5.34912 13.5 8.25012 13.5C9.61544 13.5021 10.9275 12.9706 11.9064 12.0187L12.0189 11.9062Z" fill="#373F41"/>
  </symbol>
  <symbol viewBox="0 0 24 24" id="spotify">
    <path d="M12 1C5.95 1 1 5.95 1 12C1 18.05 5.95 23 12 23C18.05 23 23 18.05 23 12C23 5.95 18.105 1 12 1ZM16.125 17.115C13.54 15.52 10.295 15.19 6.445 16.07C6.06 16.18 5.73 15.905 5.62 15.575C5.51 15.19 5.785 14.86 6.115 14.75C10.295 13.815 13.925 14.2 16.785 15.96C17.17 16.125 17.225 16.565 17.06 16.895C16.84 17.225 16.455 17.335 16.125 17.115ZM17.225 14.145C14.255 12.33 9.745 11.78 6.28 12.88C5.84 12.99 5.345 12.77 5.235 12.33C5.125 11.89 5.345 11.395 5.785 11.285C9.8 10.075 14.75 10.68 18.16 12.77C18.49 12.935 18.655 13.485 18.38 13.87C18.105 14.255 17.61 14.42 17.225 14.145ZM5.73 9.525C5.18 9.69 4.63 9.36 4.465 8.865C4.3 8.315 4.63 7.765 5.125 7.6C9.03 6.445 15.465 6.665 19.535 9.085C20.03 9.36 20.195 10.02 19.92 10.515C19.645 10.9 18.985 11.065 18.49 10.79C14.97 8.7 9.085 8.48 5.73 9.525Z"/>
  </symbol>
  <symbol viewBox="0 0 24 24" id="youtube">
    <path d="M23.7609 7.20005C23.7609 7.20005 23.5266 5.54536 22.8047 4.8188C21.8906 3.86255 20.8688 3.85786 20.4 3.80161C17.0438 3.55786 12.0047 3.55786 12.0047 3.55786H11.9953C11.9953 3.55786 6.95625 3.55786 3.6 3.80161C3.13125 3.85786 2.10938 3.86255 1.19531 4.8188C0.473438 5.54536 0.24375 7.20005 0.24375 7.20005C0.24375 7.20005 0 9.14536 0 11.086V12.9047C0 14.8454 0.239062 16.7907 0.239062 16.7907C0.239062 16.7907 0.473437 18.4454 1.19062 19.1719C2.10469 20.1282 3.30469 20.0954 3.83906 20.1985C5.76094 20.3813 12 20.4375 12 20.4375C12 20.4375 17.0438 20.4282 20.4 20.1891C20.8688 20.1329 21.8906 20.1282 22.8047 19.1719C23.5266 18.4454 23.7609 16.7907 23.7609 16.7907C23.7609 16.7907 24 14.85 24 12.9047V11.086C24 9.14536 23.7609 7.20005 23.7609 7.20005ZM9.52031 15.1125V8.36724L16.0031 11.7516L9.52031 15.1125Z"></path>
  </symbol>
</defs>
</svg>